<?xml version="1.0" standalone="no"?>
<!DOCTYPE svg PUBLIC "-//W3C//DTD SVG 20010904//EN"
 "http://www.w3.org/TR/2001/REC-SVG-20010904/DTD/svg10.dtd">
<svg version="1.0" xmlns="http://www.w3.org/2000/svg"
 width="1024.000000pt" height="1024.000000pt" viewBox="0 0 1024.000000 1024.000000"
 preserveAspectRatio="xMidYMid meet">

<g transform="translate(0.000000,1024.000000) scale(0.100000,-0.100000)"
fill="#000000" stroke="none">
<path d="M2995 7563 c-340 -46 -593 -254 -674 -553 -35 -127 -41 -238 -41
-735 0 -491 -5 -575 -41 -681 -34 -104 -119 -181 -252 -229 l-62 -23 -3 -161
-2 -162 37 -15 c128 -52 201 -109 246 -192 15 -28 37 -86 49 -129 21 -74 22
-106 28 -668 7 -607 10 -657 51 -779 60 -177 192 -335 347 -415 105 -54 247
-90 383 -98 l106 -6 -4 169 -3 169 -72 6 c-40 4 -90 11 -111 17 -87 24 -165
89 -208 173 -46 91 -50 141 -59 754 -9 676 -11 689 -103 870 -54 104 -154 205
-255 258 l-73 39 50 25 c169 87 302 259 353 456 19 77 21 117 28 647 8 611 9
619 66 737 32 67 109 136 182 163 31 12 92 24 135 27 l77 6 0 168 0 169 -72
-1 c-40 -1 -86 -4 -103 -6z"/>
<path d="M7080 7402 l0 -172 53 0 c207 -1 353 -128 386 -340 6 -37 11 -247 11
-490 1 -617 14 -740 97 -909 48 -96 188 -242 275 -287 53 -27 72 -44 49 -44
-21 0 -133 -73 -187 -123 -104 -94 -179 -240 -210 -403 -14 -73 -18 -192 -23
-669 -7 -566 -8 -582 -29 -643 -26 -73 -58 -126 -98 -164 -60 -56 -180 -98
-279 -98 l-45 0 0 -172 0 -171 103 6 c401 25 666 237 753 603 14 58 18 166 24
659 8 644 10 664 69 791 16 35 50 85 75 112 46 49 135 103 189 116 l27 6 0
169 0 168 -42 12 c-132 39 -241 135 -277 243 -34 102 -41 226 -41 733 0 582
-8 653 -90 820 -120 247 -363 392 -687 412 l-103 6 0 -171z"/>
<path d="M4108 5578 l-3 -1253 -22 -65 c-47 -134 -113 -215 -214 -259 -63 -28
-115 -35 -181 -22 -82 15 -143 47 -215 114 l-63 59 -34 -28 c-19 -16 -88 -76
-154 -134 l-120 -105 19 -26 c99 -140 246 -246 414 -299 91 -28 265 -38 384
-20 392 58 632 294 698 688 14 85 17 253 20 1350 l5 1252 -266 0 -265 0 -3
-1252z"/>
<path d="M5060 5200 l0 -1630 260 0 260 0 0 640 0 641 136 -3 136 -3 164 -340
c91 -187 228 -472 306 -632 l141 -293 278 0 c156 0 279 4 279 9 0 5 -74 150
-164 322 -240 461 -527 1021 -524 1024 2 1 40 16 85 34 230 92 411 298 489
558 24 78 27 110 31 273 4 161 2 198 -16 288 -40 192 -104 321 -219 444 -78
82 -153 136 -266 189 -202 94 -324 109 -917 109 l-459 0 0 -1630z m1024 1156
c240 -66 362 -260 342 -545 -11 -173 -47 -263 -140 -357 -118 -118 -240 -154
-526 -154 l-180 0 0 541 0 542 223 -6 c159 -4 239 -10 281 -21z"/>
</g>
</svg>
