<?xml version="1.0" standalone="no"?>
<!DOCTYPE svg PUBLIC "-//W3C//DTD SVG 20010904//EN"
 "http://www.w3.org/TR/2001/REC-SVG-20010904/DTD/svg10.dtd">
<svg version="1.0" xmlns="http://www.w3.org/2000/svg"
 width="1080.000000pt" height="1080.000000pt" viewBox="0 0 1080.000000 1080.000000"
 preserveAspectRatio="xMidYMid meet">

<g transform="translate(0.000000,1080.000000) scale(0.100000,-0.100000)"
fill="#000000" stroke="none">
<path d="M0 5400 l0 -5400 5400 0 5400 0 0 5400 0 5400 -5400 0 -5400 0 0
-5400z m3300 2555 l0 -285 -24 0 c-14 0 -28 5 -31 10 -3 6 0 10 8 10 18 0 24
65 33 343 4 114 9 207 11 207 1 0 3 -128 3 -285z m4274 277 c-7 -4 -14 -18
-17 -32 -4 -21 -4 -20 -6 8 -1 24 3 32 17 32 11 0 13 -3 6 -8z m-4476 -9 c-15
-2 -42 -2 -60 0 -18 2 -6 4 27 4 33 0 48 -2 33 -4z m-167 -18 c-332 -72 -561
-237 -708 -510 -39 -72 -44 -66 -7 8 90 179 281 355 474 438 84 35 233 78 275
77 17 0 3 -6 -34 -13z m219 -10 c-19 -7 -58 -14 -87 -14 -113 -2 -323 -62
-450 -130 -86 -45 -87 -37 -3 14 140 85 344 139 545 143 l30 0 -35 -13z m20
-521 c34 -14 33 -14 -40 -10 -41 3 -67 2 -57 -2 12 -5 1 -11 -40 -21 -89 -20
-172 -86 -202 -160 -8 -17 -16 -29 -20 -27 -3 2 -7 -10 -7 -27 -1 -18 -7 -99
-12 -182 -6 -82 -13 -343 -17 -580 -6 -439 -17 -674 -32 -684 -5 -3 -10 -22
-12 -41 -4 -44 -11 -56 -22 -39 -6 10 -9 10 -9 2 0 -6 4 -14 9 -17 5 -4 0 -24
-10 -46 -11 -22 -24 -52 -29 -66 -6 -14 -14 -23 -19 -20 -5 4 -7 -2 -4 -12 2
-10 -3 -24 -11 -31 -9 -8 -16 -18 -16 -23 0 -14 -98 -139 -139 -177 -52 -49
-96 -81 -110 -81 -7 0 22 27 63 61 79 63 113 102 97 107 -6 2 5 24 23 50 41
57 116 206 152 299 24 62 26 87 35 298 5 127 13 428 19 670 5 242 15 463 21
490 15 73 52 146 90 180 27 23 29 24 11 4 -38 -43 -24 -44 23 0 24 22 49 41
54 41 6 0 18 9 28 19 17 18 84 38 128 39 11 0 36 -6 55 -14z m-999 -105 c-9
-22 -10 -22 -10 -3 -1 11 2 24 6 27 12 12 14 0 4 -24z m-21 -162 c-6 -34 -14
-327 -20 -651 -5 -325 -12 -619 -15 -655 -11 -113 -41 -213 -56 -189 -11 17
-11 31 0 24 5 -4 7 4 3 16 -3 11 -1 19 4 16 5 -4 10 21 12 54 1 33 4 64 7 68
9 15 14 247 15 680 0 281 3 420 10 410 8 -12 10 -11 10 7 0 12 -4 24 -8 27
-10 6 -3 120 7 124 4 1 5 21 4 45 -2 34 -1 38 7 22 8 -16 9 -11 4 18 -4 28 -2
37 6 32 9 -6 10 2 6 26 -5 28 -4 30 4 11 6 -15 6 -44 0 -85z m3417 -25 c6 -4
-44 -6 -110 -4 -193 4 -215 8 -52 10 83 1 155 -2 162 -6z m-1119 -9 c-42 -2
-114 -2 -160 0 -46 1 -11 3 77 3 88 0 125 -2 83 -3z m1585 -650 c-20 -4 -22
-11 -26 -86 l-3 -82 -2 88 -2 87 28 -1 c22 -1 23 -2 5 -6z m395 -10 c-10 -2
-26 -2 -35 0 -10 3 -2 5 17 5 19 0 27 -2 18 -5z m49 -9 c-3 -3 -12 -4 -19 -1
-8 3 -5 6 6 6 11 1 17 -2 13 -5z m-2317 -2269 c-12 -33 -28 -71 -36 -85 -10
-16 -13 -18 -8 -5 48 136 44 52 52 1160 l7 1030 3 -1020 c2 -1004 2 -1021 -18
-1080z m1852 1773 c2 -69 0 -124 -4 -121 -5 2 -7 77 -6 166 2 175 6 157 10
-45z m795 -25 c-2 -16 -4 -5 -4 22 0 28 2 40 4 28 2 -13 2 -35 0 -50z m-1867
-789 c-6 -456 -12 -847 -14 -869 -2 -22 -2 293 0 700 4 699 10 1012 21 1002 2
-3 -1 -378 -7 -833z m1857 689 c-3 -10 -5 -4 -5 12 0 17 2 24 5 18 2 -7 2 -21
0 -30z m740 -115 c-2 -13 -4 -5 -4 17 -1 22 1 32 4 23 2 -10 2 -28 0 -40z
m-2280 -440 c-1 -84 -3 -16 -3 152 0 168 2 236 3 153 2 -84 2 -222 0 -305z
m2270 370 c-3 -8 -6 -5 -6 6 -1 11 2 17 5 13 3 -3 4 -12 1 -19z m-5496 -26
c-32 -60 -143 -128 -275 -169 -50 -15 -56 -20 -50 -38 20 -61 9 -366 -15 -412
-3 -6 -5 88 -3 210 2 122 6 225 10 228 4 4 51 23 106 43 107 40 174 81 208
127 25 33 34 38 19 11z m4599 -118 c-8 -8 -23 -20 -34 -25 -13 -7 -9 -1 9 15
34 29 43 33 25 10z m-65 -44 c-3 -5 -12 -10 -18 -10 -7 0 -6 4 3 10 19 12 23
12 15 0z m-4045 -124 c0 -2 -8 -10 -17 -17 -16 -13 -17 -12 -4 4 13 16 21 21
21 13z m4819 -93 c-66 -97 -196 -218 -301 -282 -62 -37 -43 -17 30 31 93 63
182 147 243 229 59 79 76 92 28 22z m1041 -146 c0 -2 -10 -12 -22 -23 l-23
-19 19 23 c18 21 26 27 26 19z m-5760 -167 c6 -11 8 -20 6 -20 -3 0 -10 9 -16
20 -6 11 -8 20 -6 20 3 0 10 -9 16 -20z m6487 14 c-3 -3 -12 -4 -19 -1 -8 3
-5 6 6 6 11 1 17 -2 13 -5z m-7337 -24 c0 -5 -2 -10 -4 -10 -3 0 -8 5 -11 10
-3 6 -1 10 4 10 6 0 11 -4 11 -10z m45 -12 c35 -16 31 -29 -5 -15 -16 6 -30
15 -30 19 0 11 4 10 35 -4z m861 -84 c71 -153 81 -240 89 -729 13 -899 17
-958 58 -1046 31 -63 17 -54 -22 16 -29 50 -32 68 -41 183 -5 70 -11 343 -15
607 -5 429 -15 686 -31 812 -5 47 -20 90 -58 176 -14 31 -23 57 -21 57 3 0 21
-34 41 -76z m6264 72 c0 -2 -12 -11 -27 -20 l-28 -17 24 20 c23 21 31 25 31
17z m-7050 -26 c14 -11 20 -20 13 -20 -6 0 -18 7 -26 15 -8 8 -17 11 -21 8 -3
-4 -6 -1 -6 5 0 17 11 15 40 -8z m6990 -13 c0 -2 -12 -14 -27 -28 l-28 -24 24
28 c23 25 31 32 31 24z m-2883 -439 c-1 -62 -3 -12 -3 112 0 124 2 174 3 113
2 -62 2 -164 0 -225z m143 322 l25 -8 -25 0 c-14 0 -34 3 -45 8 l-20 9 20 -1
c11 0 31 -4 45 -8z m-73 -16 c-3 -3 -12 -4 -19 -1 -8 3 -5 6 6 6 11 1 17 -2
13 -5z m-3991 -109 l28 -80 7 -695 c4 -382 11 -713 15 -735 4 -22 4 -38 1 -35
-17 15 -27 224 -32 670 -3 272 -8 568 -11 657 -5 145 -10 181 -41 288 -15 50
8 2 33 -70z m2841 -462 c-2 -16 -4 -3 -4 27 0 30 2 43 4 28 2 -16 2 -40 0 -55z
m1090 -125 c-2 -29 -3 -6 -3 52 0 58 1 81 3 53 2 -29 2 -77 0 -105z m-2533 96
c3 -9 2 -12 -5 -8 -6 3 -22 -5 -37 -17 -14 -13 -21 -17 -14 -8 6 9 8 20 4 24
-4 5 -2 5 4 2 7 -4 17 0 24 8 15 19 16 19 24 -1z m1423 -46 c-3 -8 -6 -5 -6 6
-1 11 2 17 5 13 3 -3 4 -12 1 -19z m-1577 -59 c-62 -57 -161 -140 -143 -119
20 22 188 169 193 169 3 0 -20 -23 -50 -50z m1566 -14 c0 -30 -3 -49 -5 -43
-2 6 -19 -30 -37 -81 -33 -94 -98 -209 -154 -271 -21 -23 -14 -9 20 41 65 99
124 225 152 328 13 44 24 81 24 81 1 0 1 -25 0 -55z m-836 2 c0 -2 -10 -12
-22 -23 l-23 -19 19 23 c18 21 26 27 26 19z m-110 -101 c-39 -21 -84 -28 -111
-17 -21 8 -17 10 26 11 28 1 59 5 70 10 32 14 43 11 15 -4z m921 -33 c-12 -20
-14 -14 -5 12 4 9 9 14 11 11 3 -2 0 -13 -6 -23z m1136 -435 c-1 -79 -3 -17
-3 137 0 154 2 218 3 143 2 -75 2 -201 0 -280z m-2937 341 c-30 -28 -54 -56
-52 -62 3 -9 0 -9 -9 0 -9 9 -4 19 25 46 37 36 77 66 86 66 3 0 -20 -23 -50
-50z m1746 -38 c-15 -28 -28 -51 -31 -51 -3 0 7 25 22 55 15 30 29 53 31 51 2
-2 -8 -27 -22 -55z m-156 -214 c0 -2 -12 -14 -27 -28 l-28 -24 24 28 c23 25
31 32 31 24z m-1450 -32 c13 -14 21 -25 18 -25 -2 0 -15 11 -28 25 -13 14 -21
25 -18 25 2 0 15 -11 28 -25z m1385 -25 c-15 -24 -123 -95 -208 -136 -91 -43
-226 -84 -276 -84 -14 1 15 12 64 25 157 41 259 86 360 160 66 48 69 49 60 35z
m-1324 -27 c13 -16 12 -17 -3 -4 -17 13 -22 21 -14 21 2 0 10 -8 17 -17z
m4364 -103 c-3 -5 -14 -10 -23 -10 -15 0 -15 2 -2 10 20 13 33 13 25 0z m-670
-43 l70 -4 -74 1 c-57 1 -75 4 -78 16 -3 11 -2 11 4 3 5 -7 40 -14 78 -16z
m-2760 -3 c-22 -8 -80 -22 -130 -30 -114 -20 -376 -14 -445 10 -25 9 -33 14
-19 11 170 -30 366 -29 519 4 105 23 127 24 75 5z m1390 -4 c-38 -4 -104 -7
-145 -7 l-75 0 60 7 c33 4 98 7 145 7 l85 0 -70 -7z m-2035 -10 c8 -5 11 -10
5 -10 -5 0 -17 5 -25 10 -8 5 -10 10 -5 10 6 0 17 -5 25 -10z m3862 3 c-40 -2
-103 -2 -140 0 -37 2 -4 3 73 3 77 0 107 -2 67 -3z m-1675 -10 c-20 -2 -52 -2
-70 0 -17 2 0 4 38 4 39 0 53 -2 32 -4z m-2050 -29 c-3 -3 -12 -4 -19 -1 -8 3
-5 6 6 6 11 1 17 -2 13 -5z m376 -1 c-7 -2 -19 -2 -25 0 -7 3 -2 5 12 5 14 0
19 -2 13 -5z m-285 -10 c-10 -2 -28 -2 -40 0 -13 2 -5 4 17 4 22 1 32 -1 23
-4z m4811 -384 c-58 -117 -174 -257 -259 -316 -14 -9 10 16 53 57 88 83 150
164 198 262 18 37 35 66 37 64 2 -2 -11 -33 -29 -67z m-5494 10 c13 -6 4 -7
-30 -3 -27 4 -52 8 -54 10 -9 8 65 2 84 -7z m172 -256 c-4 -76 -7 -158 -8
-183 -1 -38 -2 -41 -9 -20 -12 37 -12 208 0 215 6 3 10 33 10 66 0 32 3 59 6
59 4 0 4 -62 1 -137z m-787 -96 c0 -6 -11 2 -25 17 -13 14 -28 26 -33 26 -4 0
-19 15 -32 32 -20 27 -14 24 33 -17 31 -27 57 -53 57 -58z m28 -22 c-3 -3 -9
2 -12 12 -6 14 -5 15 5 6 7 -7 10 -15 7 -18z m148 -83 c-5 -4 -106 46 -106 53
0 3 25 -7 55 -22 30 -15 53 -29 51 -31z m133 -37 c47 -13 95 -26 106 -28 19
-4 19 -5 -1 -6 -26 -1 -190 45 -213 60 -13 9 -13 10 3 5 10 -4 58 -17 105 -31z
m488 -42 c-2 -16 -4 -5 -4 22 0 28 2 40 4 28 2 -13 2 -35 0 -50z m-172 15 c44
-5 82 -13 85 -18 3 -4 14 -10 25 -13 11 -2 -7 -5 -40 -5 -49 0 -55 2 -30 9 20
5 0 7 -60 5 -53 -2 -71 -1 -45 3 l45 6 -70 8 c-38 5 -86 12 -105 17 -43 11 73
4 195 -12z m-142 -15 c-7 -2 -21 -2 -30 0 -10 3 -4 5 12 5 17 0 24 -2 18 -5z
m4894 -9 c-3 -3 -12 -4 -19 -1 -8 3 -5 6 6 6 11 1 17 -2 13 -5z m-240 -10 c-3
-3 -12 -4 -19 -1 -8 3 -5 6 6 6 11 1 17 -2 13 -5z m146 -1 c-7 -2 -21 -2 -30
0 -10 3 -4 5 12 5 17 0 24 -2 18 -5z"/>
<path d="M2825 7509 c-4 -6 -5 -12 -2 -15 2 -3 7 2 10 11 7 17 1 20 -8 4z"/>
<path d="M2577 5659 c-21 -28 -36 -53 -33 -56 3 -4 46 53 70 95 16 27 -1 9
-37 -39z"/>
</g>
</svg>
